<svg xmlns="http://www.w3.org/2000/svg" id="Layer_1" viewBox="0 0 734 350"><defs><style>.cls-1,.cls-2,.cls-3{stroke:#000;stroke-miterlimit:10;}.cls-1,.cls-2,.cls-3,.cls-4{fill:none;}.cls-2{stroke-width:2px;}.cls-3{stroke-dasharray:0 0 26 18;}.cls-5{font-family:MyriadPro-Regular, 'Myriad Pro';font-size:18px;}</style></defs><line className="cls-1" x1="380.47" y1="22.78" x2="100.16" y2="22.78"></line><path className="cls-1" d="M510.53,251.35l123.29,.08"></path><line className="cls-1" x1="155.57" y1="259.96" x2="100.84" y2="259.96"></line><g><g><line className="cls-1" x1="113.52" y1="42.3" x2="113.52" y2="125.41"></line><polygon points="107.36 46.98 113.52 44.35 119.68 46.98 113.52 32.36 107.36 46.98"></polygon></g><g><line className="cls-1" x1="113.52" y1="242.36" x2="113.52" y2="160.31"></line><polygon points="119.68 237.68 113.52 240.31 107.36 237.68 113.52 252.3 119.68 237.68"></polygon></g></g><g><g><line className="cls-1" x1="383.37" y1="299.74" x2="333.53" y2="299.74"></line><polygon points="380.57 303.44 382.15 299.75 380.57 296.05 389.34 299.75 380.57 303.44"></polygon></g><g><line className="cls-1" x1="235.49" y1="299.74" x2="284.7" y2="299.74"></line><polygon points="236.73 299.75 238.3 303.44 229.53 299.75 238.3 296.05 236.73 299.75"></polygon></g></g><g><g><polyline className="cls-1" points="557.09 334.49 555.59 334.49 552.07 334.49 483.32 334.49 410.17 334.49"></polyline><polygon points="553.66 339.01 555.59 334.49 553.91 330.55 553.66 329.97 554.09 330.15 564.39 334.49 553.66 339.01"></polygon></g><g><polyline className="cls-1" points="236.83 334.49 238.33 334.49 239.27 334.49 308.02 334.49 380.57 334.49"></polyline><polygon points="238.33 334.49 240.26 339.01 229.53 334.49 237.66 331.06 240.26 329.97 238.78 333.44 238.33 334.49"></polygon></g></g><line className="cls-1" x1="222.37" y1="262.5" x2="222.37" y2="344.21"></line><line className="cls-1" x1="569.16" y1="263.43" x2="569.16" y2="343.86"></line><g><polygon className="cls-1" points="380.57 296.05 389.34 299.75 380.57 303.44 382.15 299.75 380.57 296.05"></polygon><polygon className="cls-1" points="380.57 296.05 389.34 299.75 380.57 303.44 382.15 299.75 380.57 296.05"></polygon><polygon className="cls-1" points="238.3 296.05 236.73 299.75 238.3 303.44 229.53 299.75 238.3 296.05"></polygon><path className="cls-1" d="M237.66,331.06l2.6-1.09-1.48,3.47c-.39-.79-.76-1.58-1.12-2.38Z"></path><polygon className="cls-1" points="380.57 296.05 389.34 299.75 380.57 303.44 382.15 299.75 380.57 296.05"></polygon><polygon className="cls-1" points="238.3 296.05 236.73 299.75 238.3 303.44 229.53 299.75 238.3 296.05"></polygon><path className="cls-1" d="M237.66,331.06l2.6-1.09-1.48,3.47c-.39-.79-.76-1.58-1.12-2.38Z"></path><path className="cls-3" d="M222.48,251.25c4.51-91.28,80.32-163.91,173.19-163.91s168.68,72.63,173.19,163.91"></path><polygon className="cls-1" points="380.57 296.05 389.34 299.75 380.57 303.44 382.15 299.75 380.57 296.05"></polygon><polygon className="cls-1" points="238.3 296.05 236.73 299.75 238.3 303.44 229.53 299.75 238.3 296.05"></polygon><path className="cls-1" d="M240.26,329.97l-1.48,3.47c.16,.35,.32,.7,.49,1.05h-.94l1.93,4.52-10.73-4.52,8.13-3.43,2.6-1.09Z"></path><path className="cls-2" d="M633.81,251.43l-6.99,8h-109.8l-6.49-8.08c-4.31-59.47-53.98-106.25-114.86-106.25s-110.61,46.8-115.03,106.15l-6.11,7.71h-107.25l-9.96-7.55c4.56-126.95,109.64-228.63,238.36-228.63s233.58,101.7,238.15,228.65h0Z"></path></g><g><g><line className="cls-1" x1="382.07" y1="259.87" x2="286.3" y2="259.87"></line><line className="cls-1" x1="505.04" y1="259.87" x2="410.76" y2="259.87"></line></g><g><line className="cls-1" x1="395.66" y1="245.36" x2="395.66" y2="5.79"></line><line className="cls-1" x1="395.66" y1="305.91" x2="395.66" y2="274.03"></line></g><g><line className="cls-1" x1="395.66" y1="268.18" x2="395.66" y2="251.56"></line><polyline className="cls-1" points="403.98 259.87 395.67 259.87 387.36 259.87"></polyline></g></g><polygon className="cls-4" points="238.3 303.44 229.53 299.75 238.3 296.05 236.73 299.75 238.3 303.44"></polygon><path className="cls-4" d="M238.33,334.49l1.93,4.52-10.73-4.52,8.13-3.43,2.6-1.09-1.48,3.47c.16,.35,.32,.7,.49,1.05h-.94Z"></path><polygon points="380.57 296.05 389.34 299.75 380.57 303.44 382.15 299.75 380.57 296.05"></polygon><text className="cls-5" transform="translate(107.36 149.86)"><tspan x="0" y="0">K</tspan></text><text className="cls-5" transform="translate(305.16 305.91)"><tspan x="0" y="0">A</tspan></text><text className="cls-5" transform="translate(389.34 339.21)"><tspan x="0" y="0">O</tspan></text><path className="cls-1" d="M157.98,251.25h122.11"></path></svg>