<svg xmlns="http://www.w3.org/2000/svg" id="Layer_1" viewBox="0 0 734 350"><defs><style>.cls-1,.cls-2,.cls-3{fill:none;stroke:#000;stroke-miterlimit:10;}.cls-2{stroke-width:.75px;}.cls-3{stroke-width:2px;}.cls-4{font-family:MyriadPro-Regular, 'Myriad Pro';font-size:23.85px;}</style></defs><g><g><path className="cls-1" d="M502.14,208.52c-7.38,84.95-169.65,90.22-169.65,90.22,0,0-170.7,0-178.08-94.83V67.98H502.14V208.52Z"></path><path className="cls-3" d="M502.14,67.98V208.52c-7.38,84.95-169.65,90.22-169.65,90.22,0,0-170.7,0-178.08-94.83V67.98"></path><polyline className="cls-3" points="119.65 88.96 147.87 67.98 510.63 67.98 536.92 88.96"></polyline><path className="cls-3" d="M536.92,6.2V213.58c-8.85,110.95-203.57,117.83-203.57,117.83,0,0-204.84,0-213.69-123.85V6.2"></path><line className="cls-1" x1="154.42" y1="94.66" x2="119.65" y2="126.95"></line><line className="cls-1" x1="154.42" y1="126.95" x2="119.65" y2="159.23"></line><line className="cls-1" x1="154.42" y1="159.23" x2="119.65" y2="191.52"></line><line className="cls-1" x1="154.43" y1="187.42" x2="120.98" y2="218.48"></line><line className="cls-1" x1="156.72" y1="217.35" x2="128.79" y2="243.29"></line><polyline className="cls-1" points="140.4 263.25 140.9 262.79 166.58 238.94"></polyline><polyline className="cls-1" points="155.94 278.77 156.14 278.59 181.2 255.31"></polyline><line className="cls-1" x1="199.75" y1="268.37" x2="174.39" y2="291.93"></line><line className="cls-1" x1="219.61" y1="277.99" x2="193.47" y2="302.26"></line><polyline className="cls-1" points="216.49 311.62 243.84 286.24 244.11 285.98"></polyline><line className="cls-1" x1="268.92" y1="292.88" x2="240.83" y2="318.96"></line><polyline className="cls-1" points="264.75 324.27 295.02 296.14 295.04 296.12"></polyline><line className="cls-1" x1="323.36" y1="298.74" x2="291.44" y2="328.38"></line><polyline className="cls-1" points="320.58 330.96 357.57 296.64 358.13 296.12"></polyline><line className="cls-1" x1="393.25" y1="291.01" x2="351.23" y2="330.05"></line><polyline className="cls-1" points="390.62 324.9 391.3 324.19 434.61 278.81"></polyline><polyline className="cls-1" points="502.15 213.14 502.83 212.42 536.91 176.7"></polyline><polyline className="cls-1" points="502.15 183.36 502.83 182.65 536.91 146.93"></polyline><polyline className="cls-1" points="502.15 151.04 502.83 150.33 536.91 114.61"></polyline><polyline className="cls-1" points="502.15 120.39 502.83 119.68 534.21 86.8"></polyline><polyline className="cls-1" points="502.15 88.97 502.83 88.25 517.18 73.21"></polyline><line className="cls-1" x1="536.91" y1="208.96" x2="435.4" y2="311.62"></line></g><g><g><line className="cls-1" x1="531.78" y1="21.42" x2="363.39" y2="21.42"></line><polygon points="366.2 17.72 364.63 21.42 366.2 25.13 357.42 21.42 366.2 17.72"></polygon></g><g><line className="cls-1" x1="293.17" y1="21.42" x2="124.78" y2="21.42"></line><polygon points="290.37 17.72 291.94 21.42 290.37 25.13 299.14 21.42 290.37 17.72"></polygon></g></g></g><g><line className="cls-1" x1="517.39" y1="67.98" x2="532" y2="67.98"></line><line className="cls-1" x1="541.97" y1="67.98" x2="604.06" y2="67.98"></line></g><g><line className="cls-1" x1="328.28" y1="67.98" x2="328.28" y2="176.7"></line><line className="cls-1" x1="328.28" y1="202.95" x2="328.28" y2="224.13"></line><line className="cls-1" x1="328.28" y1="243.29" x2="328.28" y2="343.8"></line></g><g><line className="cls-1" x1="592.08" y1="330.05" x2="592.08" y2="230.36"></line><polygon points="595.79 233.17 592.08 231.6 588.38 233.17 592.08 224.39 595.79 233.17"></polygon></g><g><line className="cls-1" x1="592.08" y1="159.48" x2="592.08" y2="73.2"></line><polygon points="595.79 156.68 592.08 158.25 588.38 156.68 592.08 165.45 595.79 156.68"></polygon></g><g><g><line className="cls-2" x1="462.69" y1="132.83" x2="489.63" y2="132.83"></line><polygon points="487.52 135.6 488.7 132.83 487.52 130.05 494.1 132.83 487.52 135.6"></polygon></g><g><line className="cls-2" x1="550.94" y1="132.83" x2="573.01" y2="132.83"></line><polygon points="553.04 135.6 551.86 132.83 553.04 130.05 546.46 132.83 553.04 135.6"></polygon></g></g><line className="cls-3" x1="361.71" y1="335.5" x2="607.05" y2="335.5"></line><text className="cls-4" transform="translate(573.01 200.39)"><tspan x="0" y="0">H(1)</tspan></text><text className="cls-4" transform="translate(453.71 138.86)"><tspan x="0" y="0">t</tspan></text><text className="cls-4" transform="translate(318.85 29.02)"><tspan x="0" y="0">D</tspan></text></svg>