<svg xmlns="http://www.w3.org/2000/svg" id="Layer_1" viewBox="0 0 734 350"><defs><style>.cls-1{font-family:MyriadPro-Regular, 'Myriad Pro';font-size:19.23px;}.cls-2,.cls-3,.cls-4{fill:none;stroke:#000;stroke-miterlimit:10;}.cls-3{stroke-width:2px;}.cls-4{stroke-dasharray:0 0 26 18;}</style></defs><path className="cls-3" d="M551.95,293.74l-9.58,12.38H182.19l-.84-1.92-4.47-10.09s.03-.04,.06-.09l11.76-.02,11.46-.02,11.47-.02,11.45-.03,11.47-.02,11.46-.02,11.46-.02,11.46-.02,11.46-.02,11.46-.02,11.46-.03,11.46-.02,11.46-.02,11.46-.02,11.46-.02,11.46-.02h3.75s7.71-.02,7.71-.02l11.46-.03,11.46-.02,11.46-.02,11.46-.02,11.46-.02,11.46-.02,11.46-.02,11.46-.03,11.46-.02,11.46-.02,11.46-.02,11.46-.02,11.46-.02,11.46-.02,11.46-.03h7.63c.24-.01,.37,.26,.25,.45Z"></path><path className="cls-3" d="M309.7,44.11v31.31c0,2.09-.13,4.16-.38,6.17h0c-1.79,14.41-9.8,26.87-21.25,34.66-4.04,2.75-8.5,4.91-13.28,6.37-3.4,1.04-6.94,1.72-10.6,2.01h-.01c-1.26,.09-2.53,.14-3.82,.14h-83.5v168.51h375.14V124.77h-83.9c-2.31,0-4.58-.16-6.82-.46-2.83-.38-5.59-1-8.25-1.84-2.61-.81-5.11-1.84-7.51-3.04-2.39-1.2-4.68-2.59-6.84-4.15-2.19-1.58-4.25-3.33-6.16-5.23-1.99-1.99-3.8-4.13-5.44-6.42-1.75-2.46-3.29-5.07-4.58-7.83-1.45-3.09-2.6-6.35-3.39-9.74h0c-.89-3.74-1.36-7.62-1.36-11.62v-30.32"></path><path className="cls-3" d="M551.98,124.77l-3.16-5.62-4.1-7.29h-67.97c-2.54,0-5.04-.2-7.48-.6-2.79-.45-5.5-1.15-8.11-2.07-2.55-.91-5-2.03-7.33-3.34-2.33-1.32-4.54-2.84-6.6-4.53-2.12-1.74-4.08-3.66-5.85-5.74-1.88-2.2-3.57-4.57-5.02-7.09-1.6-2.8-2.93-5.77-3.93-8.89h0c-1.21-3.74-1.94-7.68-2.16-11.76-.05-.83-.07-1.68-.07-2.52v-15.95l-5.2-3.51-2.59-1.74h-116.25l-3.04,1.72-6.25,3.54v15.25c0,2.66-.24,5.27-.67,7.81-2.06,11.83-8.7,22.16-17.96,29.28-4.19,3.23-8.91,5.79-14,7.53-3.47,1.2-7.1,2.01-10.84,2.38-1.59,.16-3.22,.25-4.85,.25h-67.27l-4.42,12.91"></path><polyline className="cls-4" points="364.42 348.65 364.42 335.98 364.42 320.15 364.42 306.12 364.42 304.3 364.42 293.65 364.42 293.28 364.42 288.47 364.42 272.64 364.42 37.29"></polyline><line className="cls-4" x1="166.23" y1="209.36" x2="609.01" y2="209.36"></line><line className="cls-2" x1="429.47" y1="44.11" x2="609.01" y2="44.11"></line><g><line className="cls-2" x1="124.8" y1="108.3" x2="176.85" y2="108.3"></line><line className="cls-2" x1="124.8" y1="306.12" x2="176.85" y2="306.12"></line></g><g><g><line className="cls-2" x1="135.54" y1="120.73" x2="135.54" y2="192.97"></line><polygon points="131.84 123.54 135.54 121.96 139.24 123.54 135.54 114.76 131.84 123.54"></polygon></g><g><line className="cls-2" x1="135.54" y1="293.73" x2="135.54" y2="222.76"></line><polygon points="139.24 290.92 135.54 292.49 131.84 290.92 135.54 299.7 139.24 290.92"></polygon></g></g><g><g><line className="cls-2" x1="599.29" y1="53.32" x2="599.29" y2="115.87"></line><polygon points="595.59 56.13 599.29 54.56 602.99 56.13 599.29 47.36 595.59 56.13"></polygon></g><g><line className="cls-2" x1="599.29" y1="203.39" x2="599.29" y2="141.97"></line><polygon points="602.99 200.59 599.29 202.16 595.59 200.59 599.29 209.36 602.99 200.59"></polygon></g></g><g><g><line className="cls-2" x1="415.7" y1="15.13" x2="375.23" y2="15.13"></line><polygon points="412.89 11.43 414.46 15.13 412.89 18.83 421.67 15.13 412.89 11.43"></polygon></g><g><line className="cls-2" x1="305.22" y1="15.13" x2="350.17" y2="15.13"></line><polygon points="308.02 18.83 306.45 15.13 308.02 11.43 299.25 15.13 308.02 18.83"></polygon></g></g><g><g><line className="cls-2" x1="287.49" y1="63.81" x2="270.24" y2="63.81"></line><polygon points="284.68 60.11 286.26 63.81 284.68 67.51 293.46 63.81 284.68 60.11"></polygon></g><g><line className="cls-2" x1="319.46" y1="63.81" x2="345.36" y2="63.81"></line><polygon points="322.27 67.51 320.69 63.81 322.27 60.11 313.49 63.81 322.27 67.51"></polygon></g></g><text className="cls-1" transform="translate(130.58 214.6)"><tspan x="0" y="0">D</tspan></text><g><g><g><line className="cls-2" x1="351.47" y1="338.69" x2="283.23" y2="338.69"></line><polygon points="348.66 334.98 350.23 338.69 348.66 342.39 357.44 338.69 348.66 334.98"></polygon></g><g><line className="cls-2" x1="187.93" y1="338.69" x2="254.96" y2="338.69"></line><polygon points="190.74 342.39 189.17 338.69 190.74 334.98 181.96 338.69 190.74 342.39"></polygon></g></g><g><g><line className="cls-2" x1="540.19" y1="338.69" x2="471.95" y2="338.69"></line><polygon points="537.38 334.98 538.96 338.69 537.38 342.39 546.16 338.69 537.38 334.98"></polygon></g><g><line className="cls-2" x1="376.66" y1="338.69" x2="443.69" y2="338.69"></line><polygon points="379.47 342.39 377.89 338.69 379.47 334.98 370.69 338.69 379.47 342.39"></polygon></g></g><text className="cls-1" transform="translate(265.2 345.18)"><tspan x="0" y="0">C</tspan></text><text className="cls-1" transform="translate(454.72 345.18)"><tspan x="0" y="0">C</tspan></text></g><text className="cls-1" transform="translate(352.09 21.16)"><tspan x="0" y="0">D1</tspan></text><text className="cls-1" transform="translate(593.74 132.96)"><tspan x="0" y="0">M</tspan></text><text className="cls-1" transform="translate(254.96 70.01)"><tspan x="0" y="0">t</tspan></text><line className="cls-2" x1="296.56" y1="45.2" x2="296.56" y2="2.68"></line><line className="cls-2" x1="423.58" y1="42.53" x2="423.58" y2=".01"></line><g><polyline className="cls-2" points="189.23 293.28 188.71 294.01 181.35 304.2"></polyline><polyline className="cls-2" points="200.68 293.28 200.17 293.98 191.4 306.12"></polyline><polyline className="cls-2" points="212.12 293.28 211.64 293.96 211.63 293.96 202.85 306.12"></polyline><polyline className="cls-2" points="223.58 293.28 223.11 293.93 223.1 293.93 214.29 306.12"></polyline><polyline className="cls-2" points="235.02 293.28 234.57 293.91 225.75 306.12"></polyline><polyline className="cls-2" points="246.47 293.28 246.03 293.89 237.19 306.12"></polyline><polyline className="cls-2" points="257.91 293.28 257.5 293.87 248.64 306.12"></polyline><polyline className="cls-2" points="269.37 293.28 268.96 293.85 260.08 306.12"></polyline><polyline className="cls-2" points="280.81 293.28 280.42 293.82 271.53 306.12"></polyline><polyline className="cls-2" points="292.26 293.28 291.89 293.8 291.88 293.8 282.98 306.12"></polyline><polyline className="cls-2" points="303.7 293.28 303.35 293.77 294.43 306.12"></polyline><polyline className="cls-2" points="315.16 293.28 314.81 293.75 305.87 306.12"></polyline><polyline className="cls-2" points="326.6 293.28 326.28 293.73 317.32 306.12"></polyline><polyline className="cls-2" points="338.05 293.28 337.74 293.71 328.77 306.12"></polyline><polyline className="cls-2" points="340.22 306.12 349.2 293.69 349.49 293.28"></polyline><polyline className="cls-2" points="351.66 306.12 360.66 293.66 360.67 293.66 360.93 293.28"></polyline><polyline className="cls-2" points="372.39 293.28 372.13 293.64 372.12 293.64 364.42 304.3 363.1 306.12"></polyline><polyline className="cls-2" points="383.83 293.28 383.59 293.61 374.55 306.12"></polyline><polyline className="cls-2" points="395.28 293.28 395.06 293.59 386 306.12"></polyline><polyline className="cls-2" points="406.72 293.28 406.52 293.57 397.45 306.12"></polyline><polyline className="cls-2" points="418.18 293.28 417.98 293.55 408.89 306.12"></polyline><polyline className="cls-2" points="429.62 293.28 429.45 293.53 420.34 306.12"></polyline><polyline className="cls-2" points="441.07 293.28 440.91 293.5 431.79 306.12"></polyline><polyline className="cls-2" points="452.51 293.28 452.37 293.48 443.24 306.12"></polyline><polyline className="cls-2" points="463.96 293.28 463.84 293.45 454.68 306.12"></polyline><polyline className="cls-2" points="475.41 293.28 475.3 293.43 466.13 306.12"></polyline><polyline className="cls-2" points="486.86 293.28 486.76 293.41 477.57 306.12"></polyline><polyline className="cls-2" points="498.3 293.28 498.23 293.39 489.03 306.12"></polyline><polyline className="cls-2" points="509.75 293.28 509.69 293.36 500.47 306.12"></polyline><polyline className="cls-2" points="521.2 293.28 521.15 293.34 511.92 306.12"></polyline><polyline className="cls-2" points="532.64 293.28 532.62 293.32 523.36 306.12"></polyline><polyline className="cls-2" points="544.09 293.28 544.08 293.29 534.81 306.12"></polyline></g><g><line className="cls-2" x1="187.62" y1="111.86" x2="179.7" y2="124.77"></line><line className="cls-2" x1="196.99" y1="111.86" x2="189.07" y2="124.77"></line><line className="cls-2" x1="206.37" y1="111.86" x2="198.45" y2="124.77"></line><line className="cls-2" x1="215.75" y1="111.86" x2="207.83" y2="124.77"></line><line className="cls-2" x1="225.12" y1="111.86" x2="217.2" y2="124.77"></line><line className="cls-2" x1="234.5" y1="111.86" x2="226.58" y2="124.77"></line><line className="cls-2" x1="243.88" y1="111.86" x2="235.96" y2="124.77"></line><line className="cls-2" x1="253.39" y1="111.62" x2="245.33" y2="124.77"></line><line className="cls-2" x1="264.24" y1="109.24" x2="254.71" y2="124.77"></line><line className="cls-2" x1="303.11" y1="45.83" x2="296.87" y2="56.02"></line><polyline className="cls-2" points="264.17 124.63 264.18 124.63 278.23 101.7"></polyline><line className="cls-2" x1="309.7" y1="50.4" x2="296.19" y2="72.42"></line><line className="cls-2" x1="309.7" y1="65.68" x2="274.78" y2="122.62"></line><polyline className="cls-2" points="309.31 81.6 309.31 81.61 288.06 116.26"></polyline><line className="cls-2" x1="424.99" y1="45.85" x2="417.75" y2="57.67"></line><line className="cls-2" x1="430.19" y1="52.67" x2="417.75" y2="72.97"></line><polyline className="cls-2" points="430.27 67.84 419.1 86.04 419.1 86.05"></polyline><polyline className="cls-2" points="432.43 79.59 432.43 79.6 422.49 95.8"></polyline><line className="cls-2" x1="436.36" y1="88.49" x2="427.07" y2="103.63"></line><line className="cls-2" x1="441.38" y1="95.58" x2="432.51" y2="110.05"></line><line className="cls-2" x1="447.23" y1="101.32" x2="438.68" y2="115.28"></line><line className="cls-2" x1="453.84" y1="105.85" x2="445.51" y2="119.43"></line><line className="cls-2" x1="461.17" y1="109.19" x2="453.02" y2="122.47"></line><line className="cls-2" x1="469.27" y1="111.27" x2="461.27" y2="124.31"></line><line className="cls-2" x1="478.28" y1="111.86" x2="470.36" y2="124.77"></line><line className="cls-2" x1="487.66" y1="111.86" x2="479.74" y2="124.77"></line><line className="cls-2" x1="497.03" y1="111.86" x2="489.11" y2="124.77"></line><line className="cls-2" x1="506.41" y1="111.86" x2="498.49" y2="124.77"></line><line className="cls-2" x1="515.79" y1="111.86" x2="507.87" y2="124.77"></line><line className="cls-2" x1="525.16" y1="111.86" x2="517.24" y2="124.77"></line><line className="cls-2" x1="534.54" y1="111.86" x2="526.62" y2="124.77"></line><line className="cls-2" x1="543.92" y1="111.86" x2="536" y2="124.77"></line><line className="cls-2" x1="548.82" y1="119.15" x2="545.37" y2="124.77"></line></g><line className="cls-2" x1="176.85" y1="312.33" x2="176.85" y2="348.65"></line><line className="cls-2" x1="552" y1="312.33" x2="552" y2="348.65"></line></svg>