<svg xmlns="http://www.w3.org/2000/svg" id="Layer_1" viewBox="0 0 734 350"><defs><style>.cls-1,.cls-2{fill:none;stroke:#000;stroke-miterlimit:10;}.cls-2{stroke-width:2px;}.cls-3{font-family:MyriadPro-Regular, 'Myriad Pro';font-size:19.55px;}</style></defs><g><rect className="cls-2" x="217.17" y="69.61" width="244.99" height="206.73"></rect><path className="cls-2" d="M596.13,243.89v32.44H83.2v-32.44h53.04c.98,0,1.95-.02,2.92-.09,7.88-.41,15.31-2.51,21.95-5.93,10.04-5.18,18.27-13.4,23.45-23.45,3.42-6.63,5.52-14.06,5.93-21.95,.07-.97,.09-1.94,.09-2.92V89.15l17.37-19.54H468.55l18.76,18.76v101.19c0,30,24.32,54.33,54.34,54.33h54.47Z"></path></g><g><polyline className="cls-1" points="190.57 96.3 217.17 69.7 217.26 69.61"></polyline><line className="cls-1" x1="217.17" y1="85.72" x2="190.57" y2="112.32"></line><line className="cls-1" x1="217.17" y1="101.73" x2="190.57" y2="128.34"></line><line className="cls-1" x1="217.17" y1="117.75" x2="190.57" y2="144.36"></line><line className="cls-1" x1="91.03" y1="243.89" x2="83.2" y2="251.72"></line><line className="cls-1" x1="217.17" y1="133.76" x2="190.57" y2="160.36"></line><line className="cls-1" x1="107.04" y1="243.89" x2="83.2" y2="267.73"></line><line className="cls-1" x1="217.17" y1="149.78" x2="190.57" y2="176.39"></line><line className="cls-1" x1="123.06" y1="243.89" x2="90.62" y2="276.33"></line><line className="cls-1" x1="217.17" y1="165.79" x2="190.48" y2="192.48"></line><line className="cls-1" x1="139.16" y1="243.8" x2="106.64" y2="276.33"></line><line className="cls-1" x1="161.11" y1="237.87" x2="122.65" y2="276.33"></line><line className="cls-1" x1="217.17" y1="181.81" x2="184.55" y2="214.43"></line><line className="cls-1" x1="217.17" y1="197.83" x2="138.67" y2="276.33"></line><line className="cls-1" x1="217.17" y1="213.84" x2="154.69" y2="276.33"></line><line className="cls-1" x1="217.17" y1="229.86" x2="170.71" y2="276.33"></line><line className="cls-1" x1="217.17" y1="245.87" x2="186.71" y2="276.33"></line><line className="cls-1" x1="217.17" y1="261.9" x2="202.74" y2="276.33"></line></g><g><g><line className="cls-1" x1="470.83" y1="71.89" x2="462.16" y2="80.56"></line><line className="cls-1" x1="478.84" y1="79.89" x2="462.16" y2="96.57"></line><line className="cls-1" x1="486.85" y1="87.91" x2="462.16" y2="112.59"></line><line className="cls-1" x1="487.32" y1="103.45" x2="462.16" y2="128.61"></line><line className="cls-1" x1="487.32" y1="119.46" x2="462.16" y2="144.62"></line><line className="cls-1" x1="487.32" y1="135.47" x2="462.16" y2="160.63"></line><line className="cls-1" x1="487.32" y1="151.49" x2="462.16" y2="176.65"></line><line className="cls-1" x1="487.32" y1="167.51" x2="462.16" y2="192.67"></line><line className="cls-1" x1="487.32" y1="183.52" x2="462.16" y2="208.69"></line><line className="cls-1" x1="488.1" y1="198.76" x2="462.16" y2="224.7"></line><line className="cls-1" x1="491.76" y1="211.12" x2="462.16" y2="240.72"></line><line className="cls-1" x1="497.57" y1="221.33" x2="462.16" y2="256.74"></line><line className="cls-1" x1="505.12" y1="229.78" x2="462.16" y2="272.75"></line></g><g><line className="cls-1" x1="514.21" y1="236.46" x2="474.34" y2="276.33"></line><line className="cls-1" x1="525.3" y1="241.38" x2="490.36" y2="276.33"></line><line className="cls-1" x1="538.88" y1="243.81" x2="506.37" y2="276.33"></line><line className="cls-1" x1="554.82" y1="243.89" x2="522.38" y2="276.33"></line><line className="cls-1" x1="570.84" y1="243.89" x2="538.4" y2="276.33"></line><line className="cls-1" x1="586.85" y1="243.89" x2="554.42" y2="276.33"></line><line className="cls-1" x1="596.13" y1="250.63" x2="570.43" y2="276.33"></line><line className="cls-1" x1="596.13" y1="266.65" x2="586.45" y2="276.33"></line></g></g><line className="cls-2" x1="335.32" y1="68.75" x2="335.32" y2="167.51"></line><line className="cls-2" x1="335.32" y1="176.65" x2="335.32" y2="276.95"></line><line className="cls-1" x1="189.48" y1="3.52" x2="189.48" y2="83.13"></line><g><line className="cls-1" x1="83.2" y1="281.41" x2="83.2" y2="349.05"></line><line className="cls-1" x1="596.13" y1="281.41" x2="596.13" y2="349.05"></line></g><line className="cls-1" x1="488.1" y1=".95" x2="488.1" y2="80.56"></line><line className="cls-1" x1="475.13" y1="68.75" x2="483.64" y2="68.75"></line><line className="cls-1" x1="496.1" y1="68.75" x2="650.8" y2="68.75"></line><g><g><line className="cls-1" x1="579.52" y1="332.73" x2="375.77" y2="332.73"></line><polygon points="576.72 329.03 578.29 332.73 576.72 336.43 585.49 332.73 576.72 329.03"></polygon></g><g><line className="cls-1" x1="95.55" y1="332.73" x2="295.88" y2="332.73"></line><polygon points="98.36 336.43 96.78 332.73 98.36 329.03 89.58 332.73 98.36 336.43"></polygon></g></g><g><g><line className="cls-1" x1="450.53" y1="99.02" x2="422.71" y2="99.02"></line><polygon points="447.72 95.31 449.29 99.02 447.72 102.72 456.5 99.02 447.72 95.31"></polygon></g><g><line className="cls-1" x1="497.18" y1="99.02" x2="524.45" y2="99.02"></line><polygon points="499.99 102.72 498.42 99.02 499.99 95.31 491.21 99.02 499.99 102.72"></polygon></g><text className="cls-3" transform="translate(531.15 104.53)"><tspan x="0" y="0">t</tspan></text></g><g><g><line className="cls-1" x1="570.43" y1="230.48" x2="570.43" y2="202.66"></line><polygon points="574.14 227.67 570.43 229.25 566.73 227.67 570.43 236.45 574.14 227.67"></polygon></g><g><line className="cls-1" x1="161.13" y1="218.12" x2="148.73" y2="205.71"></line><polygon points="161.77 213.51 160.26 217.24 156.53 218.75 165.36 222.34 161.77 213.51"></polygon></g><g><line className="cls-1" x1="570.43" y1="288" x2="570.43" y2="315.26"></line><polygon points="566.73 290.8 570.43 289.23 574.14 290.8 570.43 282.03 566.73 290.8"></polygon></g></g><g><g><line className="cls-1" x1="629.72" y1="259.51" x2="629.72" y2="186.45"></line><polygon points="633.42 256.7 629.72 258.27 626.02 256.7 629.72 265.48 633.42 256.7"></polygon></g><g><line className="cls-1" x1="629.72" y1="84.58" x2="629.72" y2="156.35"></line><polygon points="626.02 87.39 629.72 85.82 633.42 87.39 629.72 78.61 626.02 87.39"></polygon></g></g><text className="cls-3" transform="translate(331.43 339.32)"><tspan x="0" y="0">G</tspan></text><g><g><g><line className="cls-1" x1="475.39" y1="21.02" x2="360.33" y2="21.02"></line><polygon points="472.58 17.32 474.16 21.02 472.58 24.72 481.36 21.02 472.58 17.32"></polygon></g><g><line className="cls-1" x1="201.14" y1="21.02" x2="314.23" y2="21.02"></line><polygon points="203.95 24.72 202.38 21.02 203.95 17.32 195.17 21.02 203.95 24.72"></polygon></g></g><text className="cls-3" transform="translate(325.04 27.61)"><tspan x="0" y="0">OD</tspan></text></g><line className="cls-1" x1="601.23" y1="276.33" x2="650.8" y2="276.33"></line><text className="cls-3" transform="translate(554.82 211.73)"><tspan x="0" y="0">T</tspan></text><text className="cls-3" transform="translate(626.01 179.14)"><tspan x="0" y="0">F</tspan></text><text className="cls-3" transform="translate(132.97 205.71)"><tspan x="0" y="0">R</tspan></text></svg>