<svg xmlns="http://www.w3.org/2000/svg" id="Layer_1" viewBox="0 0 734 350"><defs><style>.cls-1,.cls-2,.cls-3{fill:none;stroke:#000;stroke-miterlimit:10;}.cls-2{stroke-width:2px;}.cls-3{stroke-dasharray:0 0 26 18;}.cls-4{font-family:MyriadPro-Regular, 'Myriad Pro';font-size:18px;}</style></defs><g><g><line className="cls-1" x1="547.98" y1="130.03" x2="547.98" y2="191.76"></line><polygon points="544.2 132.91 547.98 131.29 551.77 132.91 547.98 123.92 544.2 132.91"></polygon></g><g><line className="cls-1" x1="547.98" y1="290.35" x2="547.98" y2="222.6"></line><polygon points="551.77 287.47 547.98 289.09 544.2 287.47 547.98 296.46 551.77 287.47"></polygon></g></g><text className="cls-4" transform="translate(544.2 211.89)"><tspan x="0" y="0">A</tspan></text><g><g><line className="cls-3" x1="518.46" y1="112.13" x2="561.54" y2="112.13"></line><path className="cls-3" d="M279.81,338.87v-46.02c0-99.17,81.1-183.29,186.09-180.66h17.09"></path></g><g><path className="cls-2" d="M466.94,199.39l-17.55,23.81c-5.44,.78-10.68,2.24-15.61,4.3h-.02c-15.83,6.61-28.57,19.37-35.37,35.38-2.38,5.59-4.03,11.57-4.84,17.83h-.01s-23.59,16.91-23.59,16.91c-.18-1.97-.28-3.97-.32-5.98,0-.63-.02-1.26-.02-1.89,0-5.25,.44-10.4,1.28-15.41,1.36-8.14,3.79-15.91,7.13-23.16,9.07-19.7,24.88-35.53,44.39-44.39,7.16-3.26,14.82-5.58,22.83-6.8,4.33-.67,8.77-1.01,13.29-1.01,1.23,0,2.46,.03,3.68,.08,1.59,.07,3.16,.18,4.73,.33Z"></path><g><path className="cls-2" d="M344.91,50.35c-13.39,6.3-26.16,13.73-38.2,22.15h-.01c-25.01,17.53-46.84,39.36-64.44,64.45h-.01c-8.47,12.09-15.96,24.93-22.35,38.4"></path><path className="cls-2" d="M466.94,199.39l-17.55,23.81c-5.44,.78-10.68,2.24-15.61,4.3h-.02c-15.83,6.61-28.57,19.37-35.37,35.38-2.38,5.59-4.03,11.57-4.84,17.83h-.01s-23.59,16.91-23.59,16.91c-.18-1.97-.28-3.97-.32-5.98,0-.63-.02-1.26-.02-1.89,0-5.25,.44-10.4,1.28-15.41,1.36-8.14,3.79-15.91,7.13-23.16,9.07-19.7,24.88-35.53,44.39-44.39,7.16-3.26,14.82-5.58,22.83-6.8,4.33-.67,8.77-1.01,13.29-1.01,1.23,0,2.46,.03,3.68,.08,1.59,.07,3.16,.18,4.73,.33Z"></path><path className="cls-2" d="M462.21,199.06c1.59,.07,3.16,.18,4.73,.33l-17.55,23.81c-5.44,.78-10.68,2.24-15.61,4.3h-.02c-15.83,6.61-28.57,19.37-35.37,35.38-2.38,5.59-4.03,11.57-4.84,17.83h-.01s-23.59,16.91-23.59,16.91c-.18-1.97-.28-3.97-.32-5.98,0-.63-.02-1.26-.02-1.89,0-5.25,.44-10.4,1.28-15.41,1.36-8.14,3.79-15.91,7.13-23.16,9.07-19.7,24.88-35.53,44.39-44.39,7.16-3.26,14.82-5.58,22.83-6.8,4.33-.67,8.77-1.01,13.29-1.01,1.23,0,2.46,.03,3.68,.08Z"></path><path className="cls-2" d="M344.91,50.35h.01c8.71-4.11,17.68-7.74,26.88-10.87,7.37-2.5,14.89-4.68,22.55-6.51,6.58-1.59,13.25-2.92,20.01-3.98,6.01-.95,12.1-1.68,18.24-2.2,5.59-.48,11.23-.78,16.91-.88h.01c1.72-.04,3.44-.06,5.17-.06,4.21,0,8.39,.1,12.55,.3v-.3l-6.58-11.09-5.97-10.06h0c-5.54-.01-11.05,.15-16.51,.47-5.92,.34-11.8,.87-17.61,1.58-6.41,.78-12.74,1.78-19.01,2.98h-.01c-7.06,1.36-14.03,2.99-20.9,4.87-8.04,2.2-15.94,4.74-23.67,7.63-9.76,3.63-19.27,7.8-28.48,12.46h-.01c-14.99,7.57-29.21,16.46-42.53,26.5-21.14,15.93-40,34.79-55.98,55.98-10.08,13.35-19.01,27.62-26.65,42.68h-.01c-4.71,9.28-8.93,18.84-12.62,28.67-2.94,7.78-5.54,15.72-7.79,23.82-1.93,6.91-3.61,13.94-5.02,21.05-1.26,6.32-2.3,12.71-3.13,19.17-.76,5.87-1.34,11.79-1.74,17.77-.27,4.07-.46,8.17-.56,12.29l2.56,1.75,9.52,6.51,9.86,6.75h.14c-.1-2.82-.14-5.66-.14-8.5s.04-5.5,.13-8.24c.17-5.74,.53-11.44,1.06-17.09,.58-6.21,1.38-12.35,2.39-18.42,1.13-6.82,2.51-13.56,4.15-20.19,1.9-7.73,4.15-15.31,6.72-22.75,3.19-9.28,6.88-18.32,11.05-27.09"></path></g><path className="cls-2" d="M462.21,199.06c1.59,.07,3.16,.18,4.73,.33l-17.55,23.81c-5.44,.78-10.68,2.24-15.61,4.3h-.02c-15.83,6.61-28.57,19.37-35.37,35.38-2.38,5.59-4.03,11.57-4.84,17.83h-.01s-23.59,16.91-23.59,16.91c-.18-1.97-.28-3.97-.32-5.98,0-.63-.02-1.26-.02-1.89,0-5.25,.44-10.4,1.28-15.41,1.36-8.14,3.79-15.91,7.13-23.16,9.07-19.7,24.88-35.53,44.39-44.39,7.16-3.26,14.82-5.58,22.83-6.8,4.33-.67,8.77-1.01,13.29-1.01,1.23,0,2.46,.03,3.68,.08Z"></path><path className="cls-2" d="M344.91,50.35h.01c8.71-4.11,17.68-7.74,26.88-10.87,7.37-2.5,14.89-4.68,22.55-6.51,6.58-1.59,13.25-2.92,20.01-3.98,6.01-.95,12.1-1.68,18.24-2.2,5.59-.48,11.23-.78,16.91-.88h.01c1.72-.04,3.44-.06,5.17-.06,4.21,0,8.39,.1,12.55,.3v-.3l-6.58-11.09-5.97-10.06h0c-5.54-.01-11.05,.15-16.51,.47-5.92,.34-11.8,.87-17.61,1.58-6.41,.78-12.74,1.78-19.01,2.98h-.01c-7.06,1.36-14.03,2.99-20.9,4.87-8.04,2.2-15.94,4.74-23.67,7.63-9.76,3.63-19.27,7.8-28.48,12.46h-.01c-14.99,7.57-29.21,16.46-42.53,26.5-21.14,15.93-40,34.79-55.98,55.98-10.08,13.35-19.01,27.62-26.65,42.68h-.01c-4.71,9.28-8.93,18.84-12.62,28.67-2.94,7.78-5.54,15.72-7.79,23.82-1.93,6.91-3.61,13.94-5.02,21.05-1.26,6.32-2.3,12.71-3.13,19.17-.76,5.87-1.34,11.79-1.74,17.77-.27,4.07-.46,8.17-.56,12.29l2.56,1.75,9.52,6.51,9.86,6.75h.14c-.1-2.82-.14-5.66-.14-8.5s.04-5.5,.13-8.24c.17-5.74,.53-11.44,1.06-17.09,.58-6.21,1.38-12.35,2.39-18.42,1.13-6.82,2.51-13.56,4.15-20.19,1.9-7.73,4.15-15.31,6.72-22.75,3.19-9.28,6.88-18.32,11.05-27.09"></path></g><g><polyline className="cls-1" points="460.66 14.76 449.52 25.91 449.51 25.91"></polyline><line className="cls-1" x1="194.53" y1="280.89" x2="184.54" y2="290.88"></line><polyline className="cls-1" points="460.66 14.76 449.52 25.91 449.51 25.91"></polyline><line className="cls-1" x1="194.53" y1="280.89" x2="184.54" y2="290.88"></line><line className="cls-1" x1="454.69" y1="4.7" x2="432.6" y2="26.79"></line><line className="cls-1" x1="195.59" y1="263.8" x2="175.02" y2="284.37"></line><line className="cls-1" x1="438.18" y1="5.17" x2="414.36" y2="28.99"></line><line className="cls-1" x1="197.98" y1="245.38" x2="173.02" y2="270.33"></line><line className="cls-1" x1="420.57" y1="6.75" x2="394.35" y2="32.97"></line><line className="cls-1" x1="202.13" y1="225.19" x2="174.76" y2="252.56"></line><polyline className="cls-1" points="401.56 9.73 401.55 9.74 371.8 39.48"></polyline><line className="cls-1" x1="208.85" y1="202.44" x2="177.89" y2="233.39"></line><line className="cls-1" x1="219.9" y1="175.35" x2="182.91" y2="212.34"></line><polyline className="cls-1" points="344.91 50.35 344.92 50.34 380.65 14.6"></polyline><polyline className="cls-1" points="356.98 22.23 306.71 72.5 306.7 72.51"></polyline><polyline className="cls-1" points="242.26 136.95 242.25 136.96 190.7 188.52"></polyline><polyline className="cls-1" points="203.32 159.86 203.33 159.85 328.49 34.7 328.5 34.69"></polyline><line className="cls-1" x1="285.96" y1="61.19" x2="229.98" y2="117.17"></line></g><g><line className="cls-2" x1="398.39" y1="262.88" x2="369.63" y2="291.64"></line><polyline className="cls-2" points="462.21 199.06 433.78 227.5 433.76 227.51"></polyline><line className="cls-2" x1="445.24" y1="199.99" x2="370.89" y2="274.34"></line><line className="cls-2" x1="422.41" y1="206.79" x2="378.02" y2="251.18"></line></g><line className="cls-2" x1="194.54" y1="297.63" x2="369.95" y2="297.62"></line><line className="cls-2" x1="468.31" y1="25.27" x2="468.01" y2="198.81"></line><line className="cls-1" x1="455.09" y1="222.61" x2="510.88" y2="222.61"></line><g><g><line className="cls-1" x1="503.3" y1="24.86" x2="503.3" y2="83.52"></line><polygon points="495.73 30.62 503.3 27.38 510.88 30.62 503.3 12.64 495.73 30.62"></polygon></g><g><line className="cls-1" x1="503.3" y1="201.06" x2="503.3" y2="148.81"></line><polygon points="510.88 195.31 503.3 198.54 495.73 195.31 503.3 213.28 510.88 195.31"></polygon></g></g><g><g><line className="cls-1" x1="450.11" y1="333.12" x2="388.38" y2="333.12"></line><polygon points="447.23 329.33 448.85 333.12 447.23 336.91 456.22 333.12 447.23 329.33"></polygon></g><g><line className="cls-1" x1="289.8" y1="333.12" x2="357.54" y2="333.12"></line><polygon points="292.67 336.91 291.05 333.12 292.67 329.33 283.68 333.12 292.67 336.91"></polygon></g></g><g><g><line className="cls-1" x1="360.96" y1="262.88" x2="341.62" y2="262.88"></line><polygon points="358.08 259.09 359.7 262.88 358.08 266.67 367.07 262.88 358.08 259.09"></polygon></g><g><line className="cls-1" x1="410.53" y1="262.88" x2="430.32" y2="262.88"></line><polygon points="413.4 266.67 411.79 262.88 413.4 259.09 404.42 262.88 413.4 266.67"></polygon></g></g><line className="cls-1" x1="457.46" y1="4.69" x2="524.23" y2="4.69"></line><text className="cls-4" transform="translate(328.5 266.67)"><tspan x="0" y="0">t</tspan></text><text className="cls-4" transform="translate(495.73 117.17)"><tspan x="0" y="0">D</tspan></text><text className="cls-4" transform="translate(367.07 336.91)"><tspan x="0" y="0">A</tspan></text><line className="cls-1" x1="466.94" y1="207.2" x2="466.94" y2="345.31"></line></g></svg>