<svg xmlns="http://www.w3.org/2000/svg" id="Layer_1" viewBox="0 0 734 350"><defs><style>.cls-1{stroke-dasharray:0 0 19 11;}.cls-1,.cls-2,.cls-3,.cls-4{fill:none;stroke:#000;stroke-miterlimit:10;}.cls-3,.cls-4{stroke-width:2px;}.cls-5{font-family:MyriadPro-Regular, 'Myriad Pro';font-size:19.49px;}.cls-4{stroke-dasharray:0 0 60 17;}</style></defs><g><path className="cls-4" d="M441.2,118.32s-72.69,65.59-71.47,175.23"></path><g><path className="cls-3" d="M384.21,61.33s-97.32,78.72-97.32,232.21"></path><g><path className="cls-3" d="M505.43,182.56L377.43,54.55l-22.1-2.86s-81.79,66.63-95.64,227.24l18.68,14.62h180.29l20.57-16.24s5.41-46.56,29.51-70.38l-3.3-24.36Z"></path><path className="cls-3" d="M500.31,177.44s-51.07,47.41-47.51,116.11"></path><line className="cls-3" x1="467.13" y1="224.8" x2="506.18" y2="188.1"></line><path className="cls-3" d="M453.64,270.38s28.37-32.78,38.31-38.21"></path></g><path className="cls-2" d="M264.22,282.48s19.34-20.32,24.61-26.04"></path><path className="cls-2" d="M262.31,255.1s24.34-24.02,31.43-30.31"></path><path className="cls-2" d="M268.59,219.18s36.72-36.32,36.82-36.62"></path><path className="cls-2" d="M279.88,177.44s44.26-44.31,49.21-46.76"></path><line className="cls-2" x1="298.78" y1="130.68" x2="375.05" y2="54.24"></line></g><line className="cls-2" x1="215.85" y1="197.8" x2="388.31" y2="197.8"></line><line className="cls-2" x1="379.5" y1="56.63" x2="322.87"></line><line className="cls-2" x1="375.05" y1="206.45" x2="253.83" y2="70.31"></line><g><g><line className="cls-2" x1="224.92" y1="206.84" x2="224.92" y2="235.49"></line><polygon points="221.22 209.65 224.92 208.07 228.62 209.65 224.92 200.87 221.22 209.65"></polygon></g><g><line className="cls-2" x1="224.92" y1="284.81" x2="224.92" y2="259.29"></line><polygon points="228.62 282 224.92 283.58 221.22 282 224.92 290.78 228.62 282"></polygon></g></g><g><g><line className="cls-2" x1="443.62" y1="269.26" x2="421.84" y2="269.26"></line><polygon points="440.81 265.56 442.38 269.26 440.81 272.96 449.59 269.26 440.81 265.56"></polygon></g><g><line className="cls-2" x1="492.63" y1="269.26" x2="518.15" y2="269.26"></line><polygon points="495.43 272.96 493.86 269.26 495.43 265.56 486.66 269.26 495.43 272.96"></polygon></g></g><g><g><line className="cls-2" x1="470.5" y1="333.21" x2="394" y2="333.21"></line><polygon points="467.69 329.51 469.27 333.21 467.69 336.92 476.47 333.21 467.69 329.51"></polygon></g><g><line className="cls-2" x1="268.28" y1="333.21" x2="337.33" y2="333.21"></line><polygon points="271.09 336.92 269.52 333.21 271.09 329.51 262.31 333.21 271.09 336.92"></polygon></g></g><g><g><line className="cls-2" x1="326.56" y1="17.76" x2="308.62" y2="35.56"></line><polygon points="321.96 17.11 325.69 18.63 327.18 22.36 330.8 13.55 321.96 17.11"></polygon></g><g><line className="cls-2" x1="271.02" y1="72.48" x2="289.2" y2="54.56"></line><polygon points="275.62 73.14 271.9 71.61 270.42 67.87 266.77 76.67 275.62 73.14"></polygon></g></g><text className="cls-5" transform="translate(293.74 48.64)"><tspan x="0" y="0">B</tspan></text><text className="cls-5" transform="translate(220.65 255.11)"><tspan x="0" y="0">B</tspan></text><text className="cls-5" transform="translate(364.72 339.09)"><tspan x="0" y="0">D</tspan></text><text className="cls-5" transform="translate(409.02 275.24)"><tspan x="0" y="0">t</tspan></text><line className="cls-2" x1="480.1" y1="282.48" x2="480.1" y2="350"></line><line className="cls-2" x1="259.68" y1="282.48" x2="259.68" y2="350"></line><line className="cls-2" x1="369.71" y1="154.06" x2="369.71" y2="305.57"></line></g><line className="cls-1" x1="278.36" y1="293.55" x2="264.22" y2="293.55"></line><line className="cls-2" x1="253.83" y1="293.55" x2="215.85" y2="293.55"></line></svg>