<svg xmlns="http://www.w3.org/2000/svg" id="Layer_1" viewBox="0 0 734 350"><defs><style>.cls-1,.cls-2,.cls-3{fill:none;stroke:#000;stroke-miterlimit:10;}.cls-2{stroke-width:2px;}.cls-3{stroke-dasharray:0 0 26 18;}.cls-4{font-family:MyriadPro-Regular, 'Myriad Pro';font-size:21.53px;}</style></defs><path className="cls-2" d="M574.07,287.07l-10.73,13.86H160.09l-.94-2.15-5-11.29s.04-.05,.07-.1l13.17-.02,12.83-.02,12.85-.02,12.82-.04,12.85-.02,12.83-.02,12.83-.02,12.83-.02,12.83-.02,12.83-.02,12.83-.04,12.83-.02,12.83-.02,12.83-.02,12.83-.02,12.83-.02h4.2s8.64-.02,8.64-.02l12.83-.04,12.83-.02,12.83-.02,12.83-.02,12.83-.02,12.83-.02,12.83-.02,12.83-.04,12.83-.02,12.83-.02,12.83-.02,12.83-.02,12.83-.02,12.83-.02,12.83-.04h8.54c.26-.01,.42,.29,.28,.5Z"></path><path className="cls-2" d="M302.84,7.59V42.65c0,2.34-.14,4.65-.43,6.91h0c-2.01,16.14-10.97,30.08-23.79,38.8-4.52,3.07-9.52,5.5-14.87,7.13-3.8,1.16-7.77,1.93-11.87,2.25h-.01c-1.41,.1-2.83,.16-4.28,.16h-93.49v188.66h420V97.89h-93.93c-2.58,0-5.13-.18-7.63-.51-3.17-.43-6.26-1.12-9.23-2.06-2.92-.91-5.72-2.06-8.41-3.41-2.68-1.34-5.24-2.89-7.65-4.64-2.45-1.77-4.76-3.73-6.9-5.86-2.22-2.22-4.26-4.63-6.09-7.19-1.96-2.75-3.68-5.68-5.13-8.77-1.63-3.46-2.91-7.1-3.79-10.91h0c-.99-4.19-1.52-8.53-1.52-13.01V7.59"></path><path className="cls-2" d="M574.1,97.89l-3.54-6.29-4.59-8.16h-76.1c-2.85,0-5.65-.23-8.37-.67-3.12-.5-6.16-1.29-9.08-2.32-2.86-1.02-5.6-2.27-8.21-3.74-2.61-1.48-5.08-3.18-7.39-5.07-2.37-1.95-4.57-4.1-6.55-6.42-2.11-2.46-3.99-5.12-5.62-7.94-1.79-3.13-3.28-6.46-4.4-9.95h0c-1.35-4.19-2.18-8.6-2.42-13.17-.06-.93-.08-1.88-.08-2.82V13.47l-5.82-3.94-2.89-1.95h-130.15l-3.41,1.93-7,3.96V30.54c0,2.98-.26,5.9-.75,8.74-2.31,13.24-9.74,24.81-20.11,32.78-4.69,3.61-9.98,6.48-15.67,8.43-3.89,1.34-7.95,2.25-12.14,2.67-1.78,.18-3.6,.28-5.43,.28h-75.32l-4.95,14.45"></path><polyline className="cls-3" points="364.11 348.55 364.11 334.36 364.11 316.64 364.11 300.93 364.11 298.9 364.11 286.97 364.11 286.55 364.11 281.17 364.11 263.45 364.11 -.04"></polyline><line className="cls-3" x1="142.22" y1="192.6" x2="637.95" y2="192.6"></line><line className="cls-1" x1="436.94" y1="7.59" x2="637.95" y2="7.59"></line><g><line className="cls-1" x1="95.84" y1="79.46" x2="154.11" y2="79.46"></line><line className="cls-1" x1="95.84" y1="300.93" x2="154.11" y2="300.93"></line></g><g><g><line className="cls-1" x1="107.86" y1="92.65" x2="107.86" y2="174.25"></line><polygon points="104.16 95.46 107.86 93.89 111.56 95.46 107.86 86.68 104.16 95.46"></polygon></g><g><line className="cls-1" x1="107.86" y1="287.77" x2="107.86" y2="207.6"></line><polygon points="111.56 284.96 107.86 286.54 104.16 284.96 107.86 293.74 111.56 284.96"></polygon></g></g><g><g><line className="cls-1" x1="627.07" y1="17.19" x2="627.07" y2="87.93"></line><polygon points="623.36 20 627.07 18.43 630.77 20 627.07 11.22 623.36 20"></polygon></g><g><line className="cls-1" x1="627.07" y1="186.63" x2="627.07" y2="117.15"></line><polygon points="630.77 183.83 627.07 185.4 623.36 183.83 627.07 192.6 630.77 183.83"></polygon></g></g><g><g><line className="cls-1" x1="278.7" y1="29.65" x2="258.67" y2="29.65"></line><polygon points="275.89 25.94 277.46 29.65 275.89 33.35 284.67 29.65 275.89 25.94"></polygon></g><g><line className="cls-1" x1="313.06" y1="29.65" x2="342.77" y2="29.65"></line><polygon points="315.87 33.35 314.29 29.65 315.87 25.94 307.09 29.65 315.87 33.35"></polygon></g></g><text className="cls-4" transform="translate(102.31 198.47)"><tspan x="0" y="0">D</tspan></text><g><g><g><line className="cls-1" x1="350.32" y1="337.39" x2="273.21" y2="337.39"></line><polygon points="347.51 333.69 349.09 337.39 347.51 341.09 356.29 337.39 347.51 333.69"></polygon></g><g><line className="cls-1" x1="165.8" y1="337.39" x2="241.56" y2="337.39"></line><polygon points="168.61 341.09 167.04 337.39 168.61 333.69 159.84 337.39 168.61 341.09"></polygon></g></g><g><g><line className="cls-1" x1="561.62" y1="337.39" x2="484.5" y2="337.39"></line><polygon points="558.81 333.69 560.38 337.39 558.81 341.09 567.59 337.39 558.81 333.69"></polygon></g><g><line className="cls-1" x1="377.1" y1="337.39" x2="452.86" y2="337.39"></line><polygon points="379.91 341.09 378.33 337.39 379.91 333.69 371.13 337.39 379.91 341.09"></polygon></g></g><text className="cls-4" transform="translate(253.03 344.66)"><tspan x="0" y="0">C</tspan></text><text className="cls-4" transform="translate(465.21 344.66)"><tspan x="0" y="0">C</tspan></text></g><text className="cls-4" transform="translate(620.85 107.07)"><tspan x="0" y="0">M</tspan></text><text className="cls-4" transform="translate(241.56 36.59)"><tspan x="0" y="0">T</tspan></text><g><polyline className="cls-1" points="167.97 286.55 167.39 287.37 159.14 298.78"></polyline><polyline className="cls-1" points="180.79 286.55 180.22 287.34 170.4 300.93"></polyline><polyline className="cls-1" points="193.6 286.55 193.07 287.32 193.05 287.32 183.22 300.93"></polyline><polyline className="cls-1" points="206.43 286.55 205.9 287.28 205.89 287.28 196.03 300.93"></polyline><polyline className="cls-1" points="219.24 286.55 218.73 287.26 208.85 300.93"></polyline><polyline className="cls-1" points="232.06 286.55 231.57 287.24 221.66 300.93"></polyline><polyline className="cls-1" points="244.87 286.55 244.4 287.21 234.49 300.93"></polyline><polyline className="cls-1" points="257.69 286.55 257.24 287.19 247.3 300.93"></polyline><polyline className="cls-1" points="270.5 286.55 270.07 287.16 260.12 300.93"></polyline><polyline className="cls-1" points="283.32 286.55 282.9 287.14 282.89 287.14 272.93 300.93"></polyline><polyline className="cls-1" points="296.13 286.55 295.74 287.1 285.75 300.93"></polyline><polyline className="cls-1" points="308.95 286.55 308.57 287.08 298.56 300.93"></polyline><polyline className="cls-1" points="321.76 286.55 321.41 287.06 311.38 300.93"></polyline><polyline className="cls-1" points="334.59 286.55 334.24 287.03 324.19 300.93"></polyline><polyline className="cls-1" points="337.02 300.93 347.07 287.01 347.4 286.55"></polyline><polyline className="cls-1" points="349.83 300.93 359.9 286.98 359.91 286.98 360.21 286.55"></polyline><polyline className="cls-1" points="373.03 286.55 372.74 286.96 372.73 286.96 364.11 298.9 362.64 300.93"></polyline><polyline className="cls-1" points="385.84 286.55 385.58 286.92 375.46 300.93"></polyline><polyline className="cls-1" points="398.66 286.55 398.41 286.9 388.27 300.93"></polyline><polyline className="cls-1" points="411.47 286.55 411.24 286.88 401.09 300.93"></polyline><polyline className="cls-1" points="424.29 286.55 424.08 286.85 413.9 300.93"></polyline><polyline className="cls-1" points="437.1 286.55 436.91 286.83 426.72 300.93"></polyline><polyline className="cls-1" points="449.93 286.55 449.75 286.8 439.53 300.93"></polyline><polyline className="cls-1" points="462.74 286.55 462.58 286.78 452.35 300.93"></polyline><polyline className="cls-1" points="475.56 286.55 475.41 286.75 465.16 300.93"></polyline><polyline className="cls-1" points="488.37 286.55 488.25 286.72 477.99 300.93"></polyline><polyline className="cls-1" points="501.19 286.55 501.08 286.7 490.8 300.93"></polyline><polyline className="cls-1" points="514 286.55 513.92 286.67 503.62 300.93"></polyline><polyline className="cls-1" points="526.82 286.55 526.75 286.65 516.43 300.93"></polyline><polyline className="cls-1" points="539.63 286.55 539.59 286.63 529.25 300.93"></polyline><polyline className="cls-1" points="552.44 286.55 552.42 286.6 542.06 300.93"></polyline><polyline className="cls-1" points="565.27 286.55 565.25 286.57 554.87 300.93"></polyline></g><g><line className="cls-1" x1="166.17" y1="83.45" x2="157.3" y2="97.89"></line><line className="cls-1" x1="176.65" y1="83.45" x2="167.79" y2="97.89"></line><line className="cls-1" x1="187.16" y1="83.45" x2="178.29" y2="97.89"></line><line className="cls-1" x1="197.66" y1="83.45" x2="188.8" y2="97.89"></line><line className="cls-1" x1="208.15" y1="83.45" x2="199.28" y2="97.89"></line><line className="cls-1" x1="218.65" y1="83.45" x2="209.79" y2="97.89"></line><line className="cls-1" x1="229.15" y1="83.45" x2="220.29" y2="97.89"></line><line className="cls-1" x1="239.81" y1="83.17" x2="230.78" y2="97.89"></line><line className="cls-1" x1="251.95" y1="80.5" x2="241.28" y2="97.89"></line><line className="cls-1" x1="295.47" y1="9.51" x2="288.48" y2="20.93"></line><polyline className="cls-1" points="251.88 97.74 251.89 97.74 267.62 72.07"></polyline><line className="cls-1" x1="302.84" y1="14.63" x2="287.72" y2="39.29"></line><line className="cls-1" x1="302.84" y1="31.74" x2="263.75" y2="95.49"></line><polyline className="cls-1" points="302.41 49.56 302.41 49.57 278.62 88.36"></polyline><line className="cls-1" x1="431.93" y1="9.54" x2="423.82" y2="22.77"></line><line className="cls-1" x1="437.75" y1="17.17" x2="423.82" y2="39.9"></line><polyline className="cls-1" points="437.83 34.15 425.33 54.54 425.33 54.55"></polyline><polyline className="cls-1" points="440.25 47.31 440.25 47.32 429.13 65.46"></polyline><line className="cls-1" x1="444.65" y1="57.27" x2="434.26" y2="74.22"></line><line className="cls-1" x1="450.27" y1="65.22" x2="440.35" y2="81.41"></line><line className="cls-1" x1="456.83" y1="71.64" x2="447.25" y2="87.27"></line><line className="cls-1" x1="464.22" y1="76.71" x2="454.9" y2="91.91"></line><line className="cls-1" x1="472.42" y1="80.45" x2="463.31" y2="95.32"></line><line className="cls-1" x1="481.5" y1="82.78" x2="472.54" y2="97.38"></line><line className="cls-1" x1="491.59" y1="83.45" x2="482.72" y2="97.89"></line><line className="cls-1" x1="502.09" y1="83.45" x2="493.22" y2="97.89"></line><line className="cls-1" x1="512.58" y1="83.45" x2="503.71" y2="97.89"></line><line className="cls-1" x1="523.08" y1="83.45" x2="514.22" y2="97.89"></line><line className="cls-1" x1="533.58" y1="83.45" x2="524.72" y2="97.89"></line><line className="cls-1" x1="544.07" y1="83.45" x2="535.21" y2="97.89"></line><line className="cls-1" x1="554.57" y1="83.45" x2="545.71" y2="97.89"></line><line className="cls-1" x1="565.07" y1="83.45" x2="556.21" y2="97.89"></line><line className="cls-1" x1="570.56" y1="91.6" x2="566.7" y2="97.89"></line></g><line className="cls-1" x1="154.11" y1="307.89" x2="154.11" y2="348.55"></line><line className="cls-1" x1="574.12" y1="307.89" x2="574.12" y2="348.55"></line></svg>