<svg xmlns="http://www.w3.org/2000/svg" id="Layer_1" viewBox="0 0 734 350"><defs><style>.cls-1,.cls-2{fill:none;stroke:#000;stroke-miterlimit:10;}.cls-3{font-size:22.73px;}.cls-3,.cls-4{font-family:MyriadPro-Regular, 'Myriad Pro';}.cls-2{stroke-width:2px;}.cls-4{font-size:20.66px;}</style></defs><g><g><g><line className="cls-1" x1="490.56" y1="82.89" x2="490.56" y2="58.45"></line><polygon points="494.26 80.08 490.56 81.65 486.86 80.08 490.56 88.86 494.26 80.08"></polygon></g><g><line className="cls-1" x1="490.56" y1="121.06" x2="490.56" y2="148.08"></line><polygon points="486.86 123.87 490.56 122.29 494.26 123.87 490.56 115.09 486.86 123.87"></polygon></g></g><g><g><g><g><line className="cls-1" x1="497.59" y1="110.92" x2="507.65" y2="100.86"></line><line className="cls-1" x1="482.99" y1="110.97" x2="498.13" y2="95.83"></line><line className="cls-1" x1="468.41" y1="111.01" x2="483.52" y2="95.9"></line><line className="cls-1" x1="453.85" y1="111.04" x2="468.92" y2="95.96"></line><line className="cls-1" x1="439.29" y1="111.06" x2="454.34" y2="96.01"></line><line className="cls-1" x1="424.79" y1="111.02" x2="439.8" y2="96.03"></line><line className="cls-1" x1="410.44" y1="110.83" x2="425.28" y2="95.99"></line><line className="cls-1" x1="397.1" y1="109.64" x2="410.93" y2="95.82"></line><line className="cls-1" x1="385.15" y1="107.05" x2="398.12" y2="94.1"></line><line className="cls-1" x1="374.37" y1="103.31" x2="386.86" y2="90.81"></line><line className="cls-1" x1="364.53" y1="98.62" x2="376.7" y2="86.45"></line><line className="cls-1" x1="355.47" y1="93.14" x2="367.32" y2="81.29"></line><line className="cls-1" x1="347.08" y1="86.98" x2="358.58" y2="75.48"></line><line className="cls-1" x1="339.02" y1="80.5" x2="350.41" y2="69.13"></line><line className="cls-1" x1="330.25" y1="74.73" x2="342.32" y2="62.67"></line><line className="cls-1" x1="320.41" y1="70.04" x2="333.57" y2="56.88"></line><line className="cls-1" x1="309.18" y1="66.73" x2="323.65" y2="52.28"></line><line className="cls-1" x1="296.44" y1="64.95" x2="311.94" y2="49.44"></line><line className="cls-1" x1="282.63" y1="64.23" x2="298.56" y2="48.3"></line><line className="cls-1" x1="268.18" y1="64.14" x2="284.15" y2="48.16"></line><line className="cls-1" x1="253.49" y1="64.28" x2="269.4" y2="48.37"></line><line className="cls-1" x1="238.83" y1="64.42" x2="254.67" y2="48.58"></line><polyline className="cls-1" points="222.55 66.15 224.22 64.49 240.02 48.69"></polyline></g><path className="cls-2" d="M513.95,110.85l-9.48-15.02s-86.87,.46-93.71-.03c-6.84-.49-30.48-1.6-61.01-27.22-30.53-25.62-40.6-19.87-114.1-19.87l-13.09,15.79"></path></g><g><g><line className="cls-1" x1="507.65" y1="287.78" x2="497.59" y2="277.72"></line><line className="cls-1" x1="498.13" y1="292.8" x2="482.99" y2="277.66"></line><line className="cls-1" x1="483.52" y1="292.73" x2="468.41" y2="277.63"></line><line className="cls-1" x1="468.92" y1="292.68" x2="453.85" y2="277.59"></line><line className="cls-1" x1="454.34" y1="292.63" x2="439.29" y2="277.58"></line><line className="cls-1" x1="439.8" y1="292.61" x2="424.79" y2="277.61"></line><line className="cls-1" x1="425.28" y1="292.64" x2="410.44" y2="277.8"></line><line className="cls-1" x1="410.93" y1="292.82" x2="397.1" y2="278.99"></line><line className="cls-1" x1="398.12" y1="294.53" x2="385.15" y2="281.58"></line><line className="cls-1" x1="386.86" y1="297.82" x2="374.37" y2="285.33"></line><line className="cls-1" x1="376.7" y1="302.18" x2="364.53" y2="290.02"></line><line className="cls-1" x1="367.32" y1="307.34" x2="355.47" y2="295.5"></line><line className="cls-1" x1="358.58" y1="313.15" x2="347.08" y2="301.66"></line><line className="cls-1" x1="350.41" y1="319.51" x2="339.02" y2="308.13"></line><line className="cls-1" x1="342.32" y1="325.96" x2="330.25" y2="313.91"></line><line className="cls-1" x1="333.57" y1="331.76" x2="320.41" y2="318.6"></line><line className="cls-1" x1="323.65" y1="336.36" x2="309.18" y2="321.9"></line><line className="cls-1" x1="311.94" y1="339.2" x2="296.44" y2="323.69"></line><line className="cls-1" x1="298.56" y1="340.33" x2="282.63" y2="324.41"></line><line className="cls-1" x1="284.15" y1="340.47" x2="268.18" y2="324.49"></line><line className="cls-1" x1="269.4" y1="340.26" x2="253.49" y2="324.35"></line><line className="cls-1" x1="254.67" y1="340.05" x2="238.83" y2="324.21"></line><polyline className="cls-1" points="240.02 339.95 224.22 324.14 222.55 322.48"></polyline></g><g><path className="cls-2" d="M222.55,194.32v129.83c73.5,0,91.97,4.81,122.5-20.81,30.53-25.62,58.86-25.05,65.7-25.54,6.84-.49,103.19,0,103.19,0v-83.47s0-83.47,0-83.47c0,0-96.35,.49-103.19,0-6.84-.49-35.17,.08-65.7-25.54-30.53-25.62-49-20.81-122.5-20.81V194.32Z"></path><path className="cls-2" d="M513.95,277.79l-9.48,15.02s-86.87-.46-93.71,.03c-6.84,.49-30.48,1.6-61.01,27.22-30.53,25.62-40.6,19.87-114.1,19.87l-13.09-15.79"></path></g></g><line className="cls-1" x1="513.95" y1="194.32" x2="398.12" y2="194.32"></line><line className="cls-1" x1="376.7" y1="194.32" x2="358.58" y2="194.32"></line><line className="cls-1" x1="333.57" y1="194.32" x2="222.55" y2="194.32"></line></g><line className="cls-1" x1="513.95" y1="12.68" x2="513.95" y2="102.73"></line><line className="cls-1" x1="554.79" y1="94.1" x2="507.42" y2="94.1"></line><line className="cls-1" x1="222.55" y1="9.51" x2="222.55" y2="56.15"></line><line className="cls-1" x1="226.58" y1="48.69" x2="179.21" y2="48.69"></line><line className="cls-1" x1="226.58" y1="340.05" x2="179.21" y2="340.05"></line></g><g><g><line className="cls-1" x1="192.49" y1="327.85" x2="192.49" y2="215.83"></line><polygon points="196.19 325.04 192.49 326.61 188.78 325.04 192.49 333.82 196.19 325.04"></polygon></g><g><line className="cls-1" x1="192.49" y1="60.79" x2="192.49" y2="170.88"></line><polygon points="188.78 63.59 192.49 62.02 196.19 63.59 192.49 54.82 188.78 63.59"></polygon></g></g><g><g><line className="cls-1" x1="237.08" y1="32.83" x2="349.1" y2="32.83"></line><polygon points="239.89 36.54 238.32 32.83 239.89 29.13 231.11 32.83 239.89 36.54"></polygon></g><g><line className="cls-1" x1="504.15" y1="32.83" x2="394.05" y2="32.83"></line><polygon points="501.34 29.13 502.91 32.83 501.34 36.54 510.12 32.83 501.34 29.13"></polygon></g></g><g><g><line className="cls-1" x1="537.81" y1="282.03" x2="537.81" y2="213.2"></line><polygon points="541.51 279.22 537.81 280.79 534.1 279.22 537.81 288 541.51 279.22"></polygon></g><g><line className="cls-1" x1="537.81" y1="106.61" x2="537.81" y2="174.21"></line><polygon points="534.1 109.42 537.81 107.84 541.51 109.42 537.81 100.64 534.1 109.42"></polygon></g></g><line className="cls-1" x1="513.95" y1="292.82" x2="554.79" y2="292.82"></line></g><text className="cls-4" transform="translate(188.42 199.7)"><tspan x="0" y="0">D</tspan></text><text className="cls-4" transform="translate(361.39 42.04)"><tspan x="0" y="0">H</tspan></text><text className="cls-3" transform="translate(486.31 52.27)"><tspan x="0" y="0">t</tspan></text><text className="cls-4" transform="translate(527.43 204.58)"><tspan x="0" y="0">D1</tspan></text></svg>