<svg xmlns="http://www.w3.org/2000/svg" id="Layer_1" viewBox="0 0 734 350"><defs><style>.cls-1,.cls-2,.cls-3{fill:none;stroke:#000;stroke-miterlimit:10;}.cls-4{font-size:28.13px;}.cls-4,.cls-5{font-family:MyriadPro-Regular, 'Myriad Pro';}.cls-2{stroke-width:2px;}.cls-3{stroke-dasharray:0 0 26 18;}.cls-5{font-size:24px;}</style></defs><text className="cls-5" transform="translate(170.59 201.03)"><tspan x="0" y="0">D</tspan></text><text className="cls-5" transform="translate(355.2 24.99)"><tspan x="0" y="0">H</tspan></text><text className="cls-4" transform="translate(472.2 84.9)"><tspan x="0" y="0">t</tspan></text><text className="cls-5" transform="translate(538.9 256)"><tspan x="0" y="0">D1</tspan></text><g><g><g><line className="cls-1" x1="504.17" y1="158.47" x2="514.4" y2="148.24"></line><line className="cls-1" x1="487.5" y1="158.42" x2="505.69" y2="140.24"></line><line className="cls-1" x1="471.28" y1="157.93" x2="488.06" y2="141.14"></line><line className="cls-1" x1="455.72" y1="156.78" x2="471.82" y2="140.67"></line><line className="cls-1" x1="441.41" y1="154.37" x2="456.67" y2="139.1"></line><line className="cls-1" x1="428.41" y1="150.65" x2="442.53" y2="136.53"></line><line className="cls-1" x1="416.2" y1="146.13" x2="429.34" y2="133"></line><line className="cls-1" x1="404.68" y1="140.96" x2="417.08" y2="128.56"></line><line className="cls-1" x1="393.76" y1="135.16" x2="405.74" y2="123.17"></line><line className="cls-1" x1="383.43" y1="128.77" x2="395.34" y2="116.86"></line><line className="cls-1" x1="373.69" y1="121.79" x2="385.88" y2="109.61"></line><g><line className="cls-1" x1="364.57" y1="114.2" x2="377.15" y2="101.61"></line><line className="cls-1" x1="356.1" y1="105.97" x2="368.72" y2="93.33"></line><line className="cls-1" x1="348.27" y1="97.08" x2="360.44" y2="84.9"></line><line className="cls-1" x1="340.22" y1="88.4" x2="352.07" y2="76.55"></line><line className="cls-1" x1="331.23" y1="80.68" x2="343.33" y2="68.57"></line><line className="cls-1" x1="321.09" y1="74.1" x2="333.88" y2="61.3"></line><line className="cls-1" x1="309.68" y1="68.8" x2="323.43" y2="55.04"></line><line className="cls-1" x1="296.97" y1="64.79" x2="311.79" y2="49.97"></line><line className="cls-1" x1="283.03" y1="62.02" x2="298.9" y2="46.15"></line><line className="cls-1" x1="268.04" y1="60.28" x2="284.81" y2="43.52"></line><line className="cls-1" x1="252.2" y1="59.41" x2="269.66" y2="41.95"></line><line className="cls-1" x1="235.73" y1="59.17" x2="253.6" y2="41.3"></line><line className="cls-1" x1="218.75" y1="59.44" x2="236.76" y2="41.43"></line></g></g><g><polyline className="cls-1" points="511.4 344.24 511.38 344.25 505.63 350"></polyline><line className="cls-1" x1="488.91" y1="350" x2="507.38" y2="331.52"></line><line className="cls-1" x1="472.2" y1="350" x2="490.67" y2="331.52"></line><line className="cls-1" x1="455.48" y1="350" x2="473.96" y2="331.52"></line><line className="cls-1" x1="438.77" y1="350" x2="457.25" y2="331.52"></line><line className="cls-1" x1="422.05" y1="350" x2="440.52" y2="331.52"></line><g><line className="cls-1" x1="405.33" y1="350" x2="423.81" y2="331.52"></line><line className="cls-1" x1="388.62" y1="350" x2="407.1" y2="331.52"></line><line className="cls-1" x1="371.91" y1="350" x2="390.38" y2="331.52"></line><line className="cls-1" x1="355.2" y1="350" x2="373.67" y2="331.52"></line><line className="cls-1" x1="338.47" y1="350" x2="356.95" y2="331.52"></line><line className="cls-1" x1="321.76" y1="350" x2="340.23" y2="331.52"></line><line className="cls-1" x1="305.05" y1="350" x2="323.52" y2="331.52"></line><line className="cls-1" x1="288.33" y1="350" x2="306.81" y2="331.52"></line><line className="cls-1" x1="271.62" y1="350" x2="290.1" y2="331.52"></line><line className="cls-1" x1="254.9" y1="350" x2="273.37" y2="331.52"></line><line className="cls-1" x1="238.18" y1="350" x2="256.66" y2="331.52"></line><line className="cls-1" x1="221.47" y1="350" x2="239.95" y2="331.52"></line><line className="cls-1" x1="213.53" y1="341.23" x2="223.24" y2="331.52"></line></g></g><g><path className="cls-2" d="M221.5,42.08l-11.63,14.46V336.83l10.9,13.17H506.36l12.71-14.53V154.76l-10.59-14.85s-76.54,10.8-123.97-31.51c-46.06-41.08-50.8-72.7-163.01-66.33Z"></path><path className="cls-2" d="M519.07,158.21s-51.01,1.67-73.64-2.94c-25.05-5.1-67.57-22.27-96.04-56.84-27.44-33.32-59.03-41.65-139.52-38.71"></path><line className="cls-2" x1="519.07" y1="331.52" x2="209.88" y2="331.52"></line></g></g><line className="cls-1" x1="519.07" y1="148.73" x2="519.07" y2="4.28"></line><line className="cls-1" x1="209.88" y1="49.97" x2="209.88"></line><line className="cls-1" x1="213.53" y1="41.26" x2="162.75" y2="41.26"></line><line className="cls-1" x1="213.53" y1="350" x2="162.75" y2="350"></line><line className="cls-1" x1="558.27" y1="350" x2="511.4" y2="350"></line><line className="cls-1" x1="561.7" y1="139.57" x2="514.4" y2="139.57"></line><line className="cls-3" x1="381.15" y1="195.63" x2="209.88" y2="195.63"></line><line className="cls-3" x1="516.92" y1="244.78" x2="345.65" y2="244.78"></line><g><g><line className="cls-1" x1="176.39" y1="336.57" x2="176.39" y2="217.75"></line><polygon points="180.09 333.76 176.39 335.33 172.68 333.76 176.39 342.54 180.09 333.76"></polygon></g><g><line className="cls-1" x1="176.39" y1="53.42" x2="176.39" y2="170.21"></line><polygon points="172.68 56.23 176.39 54.66 180.09 56.23 176.39 47.45 172.68 56.23"></polygon></g></g><g><g><line className="cls-1" x1="547.94" y1="340.49" x2="547.94" y2="260.96"></line><polygon points="551.64 337.68 547.94 339.25 544.24 337.68 547.94 346.46 551.64 337.68"></polygon></g><g><line className="cls-1" x1="547.94" y1="150.26" x2="547.94" y2="228.39"></line><polygon points="544.24 153.07 547.94 151.5 551.64 153.07 547.94 144.29 544.24 153.07"></polygon></g></g><g><g><line className="cls-1" x1="223.71" y1="16.41" x2="341.04" y2="16.41"></line><polygon points="226.52 20.11 224.94 16.41 226.52 12.71 217.74 16.41 226.52 20.11"></polygon></g><g><line className="cls-1" x1="503.32" y1="16.41" x2="388" y2="16.41"></line><polygon points="500.51 12.71 502.08 16.41 500.51 20.11 509.29 16.41 500.51 12.71"></polygon></g></g><g><g><line className="cls-1" x1="479.76" y1="127.42" x2="479.76" y2="99.42"></line><polygon points="483.46 124.61 479.76 126.18 476.06 124.61 479.76 133.39 483.46 124.61"></polygon></g><g><line className="cls-1" x1="479.76" y1="168.66" x2="479.76" y2="201.47"></line><polygon points="476.06 171.47 479.76 169.89 483.46 171.47 479.76 162.69 476.06 171.47"></polygon></g></g></g></svg>